<svg width="80" height="79" viewBox="0 0 80 79" fill="none" xmlns="http://www.w3.org/2000/svg">
<g clip-path="url(#clip0_89_126)">
<path d="M76.5405 23.1371C75.5421 22.3843 74.4449 21.7998 73.2861 21.4033C69.9487 20.2563 66.463 19.7022 62.9633 19.7624C59.8893 19.7624 56.8057 19.7624 53.7412 19.9791C53.2866 20.0707 52.8169 19.9786 52.4204 19.7202C52.0238 19.4618 51.7276 19.0548 51.5874 18.5756C47.9631 10.4226 37.8111 7.95602 31.217 13.529C29.0196 15.3688 27.3889 17.8923 26.5415 20.7643C25.6942 23.6364 25.6703 26.7208 26.4731 29.608C26.5634 29.9856 26.6363 30.3679 26.6913 30.7535C26.4023 30.7982 26.1102 30.8155 25.8184 30.8051C22.9071 30.5422 20.0379 29.8799 17.2794 28.8339C13.3514 27.0795 12.7821 24.2105 15.7139 20.8873C18.3251 18.1509 21.3195 15.8831 24.585 14.1688C29.1954 11.5689 34.0207 9.44731 38.997 7.83218C43.4852 6.2957 48.0886 5.19063 52.7544 4.52969L56.4926 4.04464C52.1686 3.37128 47.7867 3.25351 43.4374 3.69375C37.3391 4.19731 31.301 5.35186 25.4105 7.14072C19.4808 8.80676 13.7866 11.3412 8.48414 14.6745C5.80308 16.2678 3.47225 18.4757 1.65289 21.1453C-0.244681 24.1898 0.134833 27.5439 2.81041 29.4738C3.9892 30.2988 5.28393 30.9088 6.6435 31.2798C13.1047 33.0756 19.6703 32.8176 26.2359 32.3119C26.5857 32.2436 26.9464 32.3015 27.2632 32.4766C27.58 32.6517 27.8356 32.9345 27.9911 33.282C31.0937 38.3699 35.5814 40.7435 41.0464 40.0624C42.8356 39.8565 44.5685 39.2621 46.1426 38.3144C47.7167 37.3667 49.0999 36.0849 50.2103 34.5451C51.3206 33.0053 52.1356 31.2387 52.6068 29.3501C53.0781 27.4614 53.196 25.4891 52.9537 23.55C52.8683 22.8791 52.8208 22.198 52.7449 21.4859C52.8945 21.4273 53.0511 21.3926 53.2098 21.3827C55.5723 21.7852 57.9538 22.0535 60.2973 22.6624C61.5181 23.0661 62.6577 23.7174 63.656 24.582C64.1726 24.9613 64.5382 25.5394 64.679 26.1999C64.8198 26.8605 64.7255 27.5545 64.415 28.1425C63.7595 29.4878 62.9107 30.7107 61.9007 31.7649C58.8221 34.6418 55.2848 36.8805 51.4641 38.3699C47.1756 40.1862 42.8301 41.8994 38.4088 43.272C34.6137 44.4485 30.6667 45.1193 26.7672 45.9243C24.9266 46.3062 23.048 46.5023 21.1884 46.7809V47.1008C24.3004 47.4311 27.4029 47.9574 30.5244 48.0606C38.1296 48.2378 45.7253 47.3779 53.1339 45.5012C59.2993 44.1804 65.2521 41.8783 70.8003 38.6692C73.637 37.148 76.0528 34.8371 77.8023 31.9713C79.624 28.7204 79.1686 25.1909 76.5405 23.1371Z" fill="white"/>
<path d="M66.8533 64.2119C66.8533 61.6422 66.9008 59.0518 66.8533 56.482C66.8059 53.9123 65.6958 52.9112 63.4187 52.8596C62.8115 52.8596 62.2043 52.8596 61.5971 52.8596C59.0069 52.8596 58.0012 53.8916 57.745 56.6678C57.745 56.9774 57.745 57.287 57.745 57.6069C57.745 62.024 57.745 66.4514 57.745 70.8685C57.7502 71.5604 57.8073 72.2507 57.9158 72.9326C57.9588 73.4941 58.1664 74.0257 58.508 74.4493C58.8496 74.8729 59.3072 75.166 59.8134 75.2856C60.9126 75.4953 62.0276 75.5921 63.1436 75.5746C65.8002 75.5746 66.8438 74.3877 66.8723 71.4464C66.8723 69.0521 66.8723 66.6475 66.8723 64.2222L66.8533 64.2119ZM64.007 70.9201C64.007 72.2721 63.5231 72.7881 62.3466 72.8087C61.1701 72.8294 60.6388 72.3133 60.6388 70.8995C60.6388 68.66 60.6388 66.4308 60.6388 64.2016C60.6388 61.9724 60.6388 59.671 60.6388 57.4005C60.6388 55.966 60.9993 55.5842 62.2802 55.5842C63.5611 55.5842 63.9975 55.966 64.007 57.4315C64.026 61.9518 64.0291 66.4549 64.0165 70.9407L64.007 70.9201Z" fill="white"/>
<path d="M33.921 67.8444C34.0118 67.1998 33.881 66.5414 33.5537 65.9951C33.2264 65.4487 32.7256 65.0526 32.1468 64.8825C32.6379 64.6208 33.0565 64.2222 33.3598 63.7273C33.6632 63.2324 33.8404 62.6588 33.8736 62.0651C33.8736 60.1455 33.9495 58.2259 33.8736 56.3167C33.9025 55.9109 33.8537 55.503 33.7302 55.1188C33.6067 54.7346 33.4112 54.3825 33.1562 54.0847C32.9011 53.7869 32.592 53.5499 32.2484 53.3887C31.9048 53.2276 31.5342 53.1457 31.1601 53.1483C29.5471 52.9626 27.8963 53.0967 26.2644 53.0039C25.3156 52.9419 25.1353 53.3341 25.1353 54.2733C25.1353 59.3611 25.1353 64.449 25.1353 69.5266C25.1353 71.1366 25.1353 72.7362 25.1353 74.3359C25.1353 75.0686 25.382 75.3679 26.0366 75.3679C26.2917 75.3318 26.5501 75.3318 26.8052 75.3679C27.7539 75.5021 28.0386 75.0996 28.0101 74.0779C27.9437 71.8487 28.0101 69.6195 28.0101 67.3903C28.0101 67.0291 28.2663 66.4409 28.5035 66.3583C30.1354 65.8423 31.0462 66.6163 31.0652 68.4224C31.0652 70.0633 31.0652 71.7042 31.0652 73.3348C31.0652 75.4814 30.7901 75.2853 32.9628 75.3369C33.7408 75.3369 33.959 75.0273 33.9116 74.2223C33.8926 72.0964 33.9021 69.9704 33.921 67.8444ZM30.9229 62.1476C30.9229 62.5914 30.5813 63.2725 30.2682 63.3654C29.591 63.5207 28.8935 63.5417 28.2094 63.4273C28.1145 63.4273 28.0006 62.8804 27.9911 62.5914C27.9911 61.6213 27.9911 60.6512 27.9911 59.6708C27.9911 58.6903 27.9911 57.7305 27.9911 56.7501C27.9911 56.1309 28.1619 55.8213 28.8166 55.8007C30.7142 55.7387 30.9798 56.0174 30.9798 58.0814C30.9703 59.4128 31.0178 60.775 30.9229 62.1476Z" fill="white"/>
<path d="M53.6937 66.3894C53.058 66.3894 52.8398 66.6371 52.8588 67.3079C52.8588 68.6289 52.8588 69.9602 52.8588 71.2812C52.873 71.4728 52.8512 71.6655 52.7947 71.8476C52.7382 72.0296 52.6481 72.1973 52.53 72.3402C52.4119 72.4832 52.2682 72.5985 52.1078 72.679C51.9474 72.7595 51.7735 72.8036 51.5969 72.8086C50.2402 73.015 49.5665 72.4061 49.557 70.8168C49.557 67.1221 49.557 63.4275 49.557 59.7328C49.557 58.7937 49.557 57.8442 49.6234 56.9154C49.6899 55.9865 50.1453 55.6253 51.3218 55.5944C52.2706 55.5944 52.7449 55.9762 52.8019 56.9463C52.8493 57.71 52.8019 58.4737 52.8019 59.2477C52.8588 61.4872 52.3749 61.3118 54.8038 61.3118C54.8702 61.3118 54.9556 61.3118 54.9936 61.3118C55.2118 61.0848 55.5818 60.8474 55.5913 60.5997C55.5913 59.0413 55.6577 57.5036 55.5913 55.904C55.5968 55.1927 55.3574 54.5048 54.9202 53.9758C54.483 53.4468 53.8797 53.1148 53.2288 53.0453C52.3153 52.8957 51.3914 52.8335 50.4679 52.8595C47.8777 52.8595 46.7202 54.1289 46.6727 56.9876C46.6727 59.3922 46.6727 61.7969 46.6727 64.2118C46.6727 66.7609 46.6727 69.2997 46.6727 71.8488C46.6727 73.9129 47.4128 75.1307 49.0067 75.4093C50.4286 75.6364 51.8734 75.6364 53.2952 75.4093C53.9639 75.3285 54.5779 74.9699 55.0093 74.4084C55.4407 73.8469 55.656 73.1258 55.6103 72.3958C55.6672 71.1058 55.6577 69.8157 55.6103 68.5257C55.6672 66.1417 55.9803 66.4307 53.6937 66.3894Z" fill="white"/>
<path d="M10.4386 66.3792C9.69858 66.3792 9.48984 66.6991 9.48984 67.4112C9.48984 68.5567 9.48984 69.7023 9.48984 70.8582C9.48984 72.272 8.9775 72.8087 7.78203 72.7984C6.58656 72.7881 6.15961 72.2927 6.15961 70.8891C6.15961 66.4032 6.15961 61.9105 6.15961 57.4108C6.14548 57.2013 6.14548 56.9909 6.15961 56.7813C6.29244 55.7493 6.90915 55.5429 7.75357 55.5532C8.59799 55.5635 9.24316 55.7699 9.32855 56.802C9.39497 57.5966 9.38548 58.4016 9.40445 59.1963C9.45189 61.5286 8.9775 61.2603 11.359 61.2603C11.4254 61.2603 11.5108 61.2603 11.5487 61.2603C11.7859 61.0436 12.1939 60.8165 12.1939 60.5895C12.1939 58.9176 12.1939 57.2457 12.0611 55.5945C12.0476 54.9179 11.7996 54.2719 11.3668 53.7858C10.934 53.2997 10.3483 53.0094 9.72704 52.9731C8.58276 52.8029 7.42511 52.7648 6.27346 52.8596C4.25255 53.1176 3.42711 54.1909 3.42711 56.4098C3.42711 58.9899 3.42711 61.5699 3.42711 64.1397C3.42711 66.792 3.42711 69.434 3.42711 72.076C3.38885 72.5159 3.43761 72.9596 3.57012 73.3774C3.70262 73.7951 3.9158 74.1771 4.19532 74.4978C4.47485 74.8185 4.81424 75.0703 5.19069 75.2365C5.56714 75.4026 5.97192 75.4792 6.37783 75.461C7.30329 75.5332 8.23231 75.5332 9.15777 75.461C9.58794 75.4764 10.0163 75.3937 10.4153 75.2182C10.8143 75.0426 11.1751 74.7782 11.4745 74.4418C11.7739 74.1055 12.0053 73.7047 12.1537 73.2652C12.3021 72.8258 12.3642 72.3574 12.3362 71.8902C12.3362 70.7137 12.3362 69.5268 12.3362 68.34C12.3362 66.1934 12.7252 66.4308 10.4386 66.3792Z" fill="white"/>
<path d="M22.3459 66.8332C21.7766 62.4987 21.2168 58.1641 20.6286 53.8296C20.6286 53.5303 20.287 53.0556 20.0878 53.0453C18.9113 52.973 17.7348 53.0453 16.5393 53.0453C15.9321 57.6172 15.3438 62.0549 14.7651 66.4616C14.4235 69.083 14.1199 71.7043 13.7309 74.3154C13.5981 75.1823 13.8922 75.3474 14.5753 75.3474C16.378 75.3474 16.3496 75.4506 16.4729 73.6342C16.4729 73.3556 16.5867 73.0769 16.5773 72.8086C16.5773 72.0862 16.8619 71.8592 17.526 71.7766C20.2206 71.6115 20.2016 71.5908 20.5906 74.5631C20.6302 74.7197 20.7033 74.864 20.8039 74.9842C20.9044 75.1043 21.0297 75.197 21.1694 75.2545C21.9341 75.3018 22.7007 75.3018 23.4654 75.2545C23.4654 74.8417 23.4654 74.6353 23.4085 74.4289C23.029 71.9314 22.6779 69.372 22.3459 66.8332ZM18.5507 69.0211C18.0858 69.0211 17.6019 69.0211 17.0137 68.9385C17.4501 65.1407 17.8581 61.5389 18.2661 57.9474H18.5507C18.6836 58.7937 18.8354 59.6399 18.9397 60.4965C19.2244 62.8805 19.509 65.2645 19.7557 67.6485C19.9265 68.9695 19.8126 69.0211 18.5318 69.0211H18.5507Z" fill="white"/>
<path d="M42.5835 53.9536C42.4886 53.2724 42.2988 52.9215 41.6347 52.9835C40.8991 53.0506 40.1596 53.0506 39.424 52.9835C38.5511 52.8699 38.3329 53.3447 38.238 54.1497C37.9534 56.5956 37.6403 59.0415 37.2893 61.4874C36.72 65.7806 36.1412 70.0773 35.553 74.3774C35.4486 75.0792 35.6668 75.4094 36.3025 75.3166C36.6182 75.2862 36.9357 75.2862 37.2513 75.3166C37.9724 75.4094 38.2001 74.976 38.276 74.2845C38.5986 71.7045 38.6081 71.7045 41.0275 71.7767H41.2172C41.8624 71.7148 42.166 72.0657 42.166 72.7262C42.2419 73.5518 42.3368 74.3671 42.4317 75.2237H45.2116C45.2116 74.5941 45.2116 74.1091 45.1357 73.6343C44.3292 67.0913 43.4374 60.5173 42.5835 53.9536ZM40.5531 69.0315H38.9022C39.3386 65.1924 39.7466 61.5596 40.1641 57.9166H40.5246C40.7903 60.218 41.0464 62.5091 41.3216 64.8105C41.426 65.7393 41.5493 66.6682 41.6537 67.597C41.796 68.918 41.7485 69.0109 40.5531 69.0315Z" fill="white"/>
<path d="M74.6144 72.468C74.3269 72.4474 74.0385 72.4474 73.751 72.468C72.8022 72.6125 72.5366 72.2513 72.546 71.2193C72.5935 65.8527 72.546 60.4862 72.546 55.1196C72.546 52.7666 72.9161 53.0556 70.6485 52.9937C69.861 52.9937 69.5858 53.2517 69.6048 54.1289C69.6048 57.4727 69.6048 60.8164 69.6048 64.1602C69.6048 67.504 69.6048 70.7136 69.6048 73.9851C69.6048 75.0171 69.823 75.368 70.7813 75.3164C72.1476 75.2442 73.5328 75.2442 74.9085 75.3164C75.8573 75.3783 76.1135 74.9758 76.0755 73.9954C75.9901 72.468 76.0471 72.468 74.6144 72.468Z" fill="white"/>
</g>
<defs>
<clipPath id="clip0_89_126">
<rect width="79.3658" height="78.5476" fill="white" transform="translate(0.0019989 0.226074)"/>
</clipPath>
</defs>
</svg>
