<svg width="155" height="47" viewBox="0 0 155 47" fill="none" xmlns="http://www.w3.org/2000/svg">
<path d="M57.5879 7.27826C57.5879 17.7512 57.5879 28.221 57.5879 38.6876C57.5879 39.6277 57.5879 39.6277 56.747 39.6277C55.9062 39.6277 55.0654 39.6277 54.2245 39.6277C53.6359 39.6277 52.8371 39.8252 52.5428 39.4867C52.2486 39.1483 52.4167 38.2458 52.3915 37.6065C52.3915 37.3715 52.3915 37.1364 52.3915 36.7134C51.6042 37.9024 50.4816 38.7602 49.2047 39.1483C45.3789 40.2012 41.8389 39.7688 38.9717 36.4125C37.5943 34.7086 36.7915 32.521 36.7014 30.2265C36.4202 27.7135 36.8154 25.1638 37.8365 22.903C38.5463 21.3713 39.6136 20.0829 40.9251 19.1742C42.2367 18.2656 43.7437 17.7706 45.2864 17.7418C46.5703 17.6092 47.8649 17.7626 49.0954 18.193C50.2153 18.5934 51.2022 19.3596 51.929 20.3929C51.9963 20.4869 52.072 20.5715 52.2401 20.769V8.06796C52.2401 7.80473 52.2401 7.54149 52.2401 7.27826H57.5879ZM41.9987 28.901C41.9987 29.2018 42.0576 29.7283 42.1416 30.2454C42.2943 31.4059 42.7721 32.4824 43.5063 33.3202C44.2406 34.1581 45.1935 34.7141 46.2281 34.9083C47.216 35.1295 48.2406 35.0149 49.1697 34.5792C50.0988 34.1436 50.89 33.4069 51.4413 32.464C52.294 30.9027 52.577 29.0346 52.2317 27.2464C52.0942 26.2656 51.7314 25.3416 51.1787 24.5647C50.626 23.7877 49.9024 23.1845 49.0787 22.814C48.2549 22.4436 47.3593 22.3185 46.4794 22.4511C45.5994 22.5837 44.7654 22.9694 44.0588 23.5705C42.5621 24.8585 42.0407 26.6635 41.9987 28.9292V28.901Z" fill="#ffffff"/>
<path d="M122.005 29.8317C121.963 30.9228 122.256 31.9971 122.836 32.8761C123.416 33.7551 124.247 34.386 125.191 34.6639C126.482 35.13 127.876 35.0902 129.143 34.5511C129.76 34.2502 130.306 33.7914 130.735 33.2117C131.165 32.632 131.466 31.9476 131.615 31.2137L136.148 33.1973C135.579 35.2338 134.369 36.9706 132.742 38.0859C130.564 39.4451 128.047 39.967 125.578 39.5713C123.673 39.4141 121.843 38.6724 120.289 37.4279C119.239 36.5743 118.365 35.4773 117.728 34.2118C117.091 32.9463 116.706 31.5421 116.598 30.0949C116.249 27.4485 116.753 24.7497 118.019 22.48C118.798 21.0985 119.862 19.9462 121.122 19.1201C122.381 18.2939 123.8 17.818 125.259 17.7324C127.436 17.4343 129.643 17.8904 131.582 19.0391C132.65 19.6784 133.558 20.6072 134.222 21.7406C134.886 22.8739 135.285 24.1755 135.382 25.526C135.436 26.7542 135.422 27.9849 135.34 29.2112C135.34 29.7471 135.071 29.8411 134.651 29.8411C130.682 29.8411 126.722 29.8411 122.753 29.8411L122.005 29.8317ZM130.253 25.7892C130.299 25.2445 130.214 24.6959 130.008 24.2001C129.801 23.7044 129.479 23.2793 129.076 22.9688C128.243 22.3657 127.267 22.0558 126.275 22.0793C125.283 22.1027 124.319 22.4585 123.51 23.1005C122.701 23.7577 122.143 24.7309 121.946 25.8268L130.253 25.7892Z" fill="#ffffff"/>
<path d="M64.3061 29.8317C64.3042 31.0172 64.6769 32.1654 65.3584 33.0736C66.04 33.9818 66.9865 34.5917 68.0311 34.7955C69.2711 35.1407 70.5785 35.015 71.7476 34.4383C72.3102 34.1163 72.8023 33.6595 73.1889 33.1005C73.5755 32.5415 73.8471 31.8941 73.9842 31.2043L78.5248 33.1973C78.2086 34.358 77.6787 35.4319 76.9691 36.3499C76.2596 37.268 75.386 38.0098 74.4046 38.5278C72.2697 39.5722 69.9089 39.8988 67.6107 39.4679C65.4084 39.2556 63.3347 38.2188 61.7248 36.5253C59.3704 33.9964 58.6389 30.8094 58.9079 27.2746C59.0525 24.7938 59.9965 22.4558 61.565 20.6937C63.1907 18.8782 65.3583 17.797 67.6527 17.6572C69.8301 17.3709 72.0338 17.8368 73.9674 18.9921C75.0729 19.6763 76.0024 20.667 76.6665 21.8689C77.3306 23.0708 77.7071 24.4434 77.7596 25.855C77.8437 26.9173 77.6923 28.0079 77.6839 29.089C77.6839 29.6531 77.4317 29.7659 76.9692 29.7659C72.9668 29.7659 68.9644 29.7659 64.9536 29.7659L64.3061 29.8317ZM72.7146 25.7986C72.7418 25.2939 72.665 24.789 72.4901 24.3228C72.3151 23.8567 72.0467 23.4416 71.7055 23.1098C70.7628 22.3294 69.5998 21.9558 68.4303 22.0577C67.2608 22.1597 66.1636 22.7302 65.3404 23.6645C64.828 24.2442 64.495 24.9921 64.3902 25.7986H72.7146Z" fill="#ffffff"/>
<path d="M93.6431 31.2137L98.1669 33.2067C97.8482 34.4407 97.2797 35.5761 96.5054 36.5249C95.7311 37.4737 94.7719 38.2105 93.702 38.6782C89.666 40.3516 85.7224 40.1166 82.132 37.2492C81.1947 36.4825 80.4071 35.5102 79.8172 34.3916C79.2274 33.2731 78.8477 32.0318 78.7014 30.7436C78.1757 27.8765 78.6671 24.8931 80.072 22.4236C80.8512 21.0548 81.9117 19.914 83.1652 19.0963C84.4187 18.2787 85.8288 17.8078 87.278 17.723C89.4749 17.4179 91.7023 17.8845 93.6515 19.0579C94.7726 19.7527 95.712 20.7625 96.3771 21.9875C97.0422 23.2126 97.4098 24.6105 97.4437 26.043C97.511 27.0677 97.3765 28.1113 97.3681 29.1454C97.3681 29.7659 97.0654 29.8317 96.6029 29.8317C92.6425 29.8317 88.6738 29.8317 84.7134 29.8317H84.0071C83.9721 30.937 84.278 32.0222 84.8735 32.9054C85.469 33.7886 86.3179 34.4161 87.278 34.6827C89.7248 35.3972 92.5837 34.9929 93.6431 31.2137ZM92.4576 25.7892C92.31 25.1228 92.1044 24.4741 91.8437 23.8525C91.512 23.3029 91.0612 22.856 90.5334 22.5535C90.0056 22.2511 89.4179 22.1029 88.8251 22.1227C87.8261 21.9713 86.8107 22.2067 85.948 22.7899C85.0852 23.3732 84.427 24.269 84.0828 25.3285C84.0446 25.495 84.0193 25.6649 84.0071 25.8362L92.4576 25.7892Z" fill="#ffffff"/>
<path d="M105.314 34.2597H116.127V39.5901H98.3771C98.3771 37.9543 98.3771 36.3279 98.3771 34.7015C98.3771 34.4759 98.6293 34.2221 98.8059 34.034L108.501 23.4765C108.661 23.3128 108.83 23.159 109.005 23.0158L108.93 22.8466H98.747V17.7324H115.892C115.892 19.0391 115.892 20.3177 115.892 21.5869C115.913 21.9105 115.866 22.2352 115.753 22.5343C115.641 22.8334 115.466 23.0983 115.244 23.3073C112.133 26.6447 109.039 30.0103 105.936 33.3571C105.701 33.611 105.449 33.846 105.196 34.081L105.314 34.2597Z" fill="#ffffff"/>
<path d="M142.79 39.6183H137.443V17.7888H142.74V20.6091L142.933 20.7502C142.945 20.6523 142.971 20.5571 143.009 20.4681C144.27 18.146 146.212 17.4785 148.474 17.817C149.559 17.9253 150.584 18.4234 151.395 19.2368C152.206 20.0502 152.759 21.1352 152.973 22.3296C153.135 23.3914 153.208 24.4678 153.191 25.5448C153.191 25.6952 153.006 25.9772 152.897 25.9772C151.283 25.9772 149.66 25.9772 148.046 25.9772C147.978 25.4225 147.945 24.9431 147.861 24.473C147.766 23.8082 147.458 23.205 146.993 22.7772C146.528 22.3493 145.94 22.1266 145.338 22.1509C144.738 22.1571 144.161 22.4111 143.719 22.8641C143.277 23.3171 143 23.937 142.942 24.6046C142.871 25.0833 142.835 25.5674 142.832 26.0524C142.832 30.283 142.832 34.5135 142.832 38.7628L142.79 39.6183Z" fill="#ffffff"/>
<path d="M31.1434 35.3314H24.6689V39.6371H31.1434V35.3314Z" fill="#ffffff"/>
<path d="M23.3067 35.3878H16.8323V39.6935H23.3067V35.3878Z" fill="#ffffff"/>
<path d="M15.4449 35.3878H8.97046V39.6935H15.4449V35.3878Z" fill="#ffffff"/>
<path d="M7.57469 35.3878H1.10022V39.6935H7.57469V35.3878Z" fill="#ffffff"/>
<path d="M31.1434 29.4275H24.6689V33.7332H31.1434V29.4275Z" fill="#ffffff"/>
<path d="M23.3067 29.4933H16.8323V33.799H23.3067V29.4933Z" fill="#ffffff"/>
<path d="M15.4449 29.4933H8.97046V33.799H15.4449V29.4933Z" fill="#ffffff"/>
<path d="M31.1434 23.5329H24.6689V27.8386H31.1434V23.5329Z" fill="#ffffff"/>
<path d="M31.1434 17.6384H24.6689V21.9441H31.1434V17.6384Z" fill="#ffffff"/>
</svg>
