<svg width="196" height="39" viewBox="0 0 196 39" fill="none" xmlns="http://www.w3.org/2000/svg">
<g clip-path="url(#clip0_89_135)">
<path fill-rule="evenodd" clip-rule="evenodd" d="M176 19.506C176 10.972 177.976 3.96196 180.409 3.96196C182.843 3.96196 184.808 10.9111 184.808 19.506C184.808 28.101 182.843 35.0501 180.409 35.0501C177.976 35.0501 176 28.0888 176 19.506ZM165.718 19.506C165.718 9.15551 172.287 0.755615 180.409 0.755615C188.532 0.755615 195.089 9.15551 195.089 19.506C195.089 29.8566 188.52 38.2443 180.409 38.2443C172.298 38.2443 165.718 29.8566 165.718 19.506Z" fill="white"/>
<path fill-rule="evenodd" clip-rule="evenodd" d="M19.9142 2.35278V6.90019H9.0843V12.4351H16.3728V18.031H9.0843V33.3556H19.4573V38.1834H0.367828V2.35278H19.9142Z" fill="white"/>
<path fill-rule="evenodd" clip-rule="evenodd" d="M22.2675 2.7063V38.1834H41.8139V33.1483H30.013V2.7063H22.2675Z" fill="white"/>
<path fill-rule="evenodd" clip-rule="evenodd" d="M50.9988 2.42578H74.1437V7.46084H66.7981V38.1832H58.3444V7.18044H50.9988V2.42578Z" fill="white"/>
<path d="M84.9736 2.42578H77.1711V38.1954H84.9736V2.42578Z" fill="white"/>
<path fill-rule="evenodd" clip-rule="evenodd" d="M88.1837 2.42578V38.1832H107.068V33.6358H96.9002V17.7504H104.714V12.9957H96.9002V7.18044H107.536V2.42578H88.1837Z" fill="white"/>
<path fill-rule="evenodd" clip-rule="evenodd" d="M110.346 2.42591V38.1834H115.076V21.3226L122.353 38.1834H124.512L129.961 22.0907V38.1834H138.415L138.483 2.14551H129.961L124.249 18.799L116.447 2.42591H110.346Z" fill="white"/>
<path fill-rule="evenodd" clip-rule="evenodd" d="M140.711 2.14551L140.78 38.1956H148.971V25.0288L156.522 25.102C158.692 25.102 159.823 23.7365 161.297 22.0297C163.65 19.3232 163.959 16.6777 163.867 12.9959C163.787 10.009 163.548 7.96082 161.765 5.68102C159.332 2.52344 156.339 2.18208 152.512 2.18208H140.711V2.14551ZM149.165 7.53412V19.9206H153.883C155.018 19.4565 155.954 18.5625 156.51 17.4092C156.983 16.4856 157.23 15.4502 157.23 14.3979C157.473 12.6988 157.123 10.9638 156.248 9.52132C155.688 8.59477 155.414 7.71699 154.408 7.48535C154.086 7.40015 153.749 7.40015 153.426 7.48535L149.165 7.53412Z" fill="white"/>
</g>
<defs>
<clipPath id="clip0_89_135">
<rect width="194.733" height="37.4886" fill="white" transform="translate(0.367828 0.755615)"/>
</clipPath>
</defs>
</svg>
