<svg width="73" height="75" viewBox="0 0 73 75" fill="none" xmlns="http://www.w3.org/2000/svg">
<g clip-path="url(#clip0_89_122)">
<path d="M69.2046 0.904053H2.32404V7.81841H69.2046V0.904053Z" fill="white"/>
<path d="M32.657 53.4685V56.0169C32.4853 59.9491 31.3801 63.7594 29.455 67.0568C28.6064 68.6622 27.4367 70.0264 26.0375 71.0424C24.6382 72.0585 23.0474 72.6988 21.3897 72.9133H16.6728C16.3281 72.9133 15.9975 72.7603 15.7537 72.488C15.51 72.2157 15.3731 71.8464 15.3731 71.4612C15.4247 62.7197 15.3731 53.9782 15.3731 45.2271V43.6211C18.291 43.1018 20.6925 43.573 22.3968 46.3618C23.627 48.3346 24.2713 50.6894 24.2388 53.0935C24.2388 53.0935 24.2388 53.1608 24.2388 53.1993V54.1609H24.7036H25.1684V52.3818C25.1684 51.4202 25.1684 50.4585 25.1684 49.4968V31.2253H24.2732V32.8312C24.2699 32.8664 24.2699 32.9019 24.2732 32.937C24.1355 33.8987 24.1613 34.9373 23.972 35.8989C22.9821 40.89 19.6682 43.4191 15.5624 42.294C15.5624 42.2171 15.4677 42.1401 15.4677 42.0632C15.4677 33.591 15.4247 25.1187 15.4677 16.6465C15.4677 16.3387 16.0272 15.7906 16.3285 15.7713C17.7487 15.6848 19.169 15.7233 20.5892 15.7713C21.6693 15.7916 22.7331 16.0688 23.7097 16.5845C24.6863 17.1002 25.5534 17.8426 26.253 18.7621C29.0935 22.301 30.135 26.6093 30.3932 31.2637C30.4621 32.4177 30.5309 33.5621 30.5912 34.7065V34.8507H31.6413V14.675H30.4534H11.93H2.46176V15.6367H5.49161C5.97363 15.7521 6.23185 16.1464 6.2835 16.858C6.2835 17.31 6.42122 17.7524 6.42122 18.2044C6.42122 35.6489 6.42122 53.0935 6.42122 70.538C6.42981 70.9748 6.41256 71.4117 6.36958 71.8459C6.33003 72.1474 6.19398 72.4227 5.98665 72.6208C5.77931 72.8188 5.51475 72.9262 5.24199 72.923H2.16049V74.0866H29.2656H32.1491H32.4934H33.6727V53.4685H32.657Z" fill="white"/>
<path d="M68.318 53.4685V56.0169C68.1382 59.9474 67.0337 63.7555 65.116 67.0568C64.2654 68.6603 63.0952 70.0229 61.6963 71.0387C60.2975 72.0545 58.7077 72.696 57.0508 72.9133H52.3252C51.982 72.9108 51.6536 72.7567 51.4117 72.4846C51.1698 72.2126 51.0341 71.8447 51.0341 71.4612C51.0771 62.7197 51.0341 53.9782 51.0341 45.2271V43.6211C53.952 43.1018 56.3535 43.573 58.0492 46.3618C59.282 48.3338 59.9293 50.6884 59.8998 53.0935C59.8956 53.1286 59.8956 53.1642 59.8998 53.1993V54.1609H60.3646H60.8295V52.3818C60.8295 51.4202 60.8295 50.4585 60.8295 49.4968V31.2253H59.9343V32.8312V32.937C59.8052 33.8987 59.831 34.9373 59.6416 35.8989C58.6518 40.89 55.2948 43.4191 51.2321 42.294C51.2321 42.2171 51.1374 42.1401 51.1374 42.0632C51.1374 33.591 51.0943 25.1187 51.1374 16.6465C51.1374 16.3387 51.6969 15.7906 51.9981 15.7713C53.4098 15.6848 54.8386 15.7233 56.3019 15.7713C57.3807 15.7917 58.4432 16.069 59.4184 16.5847C60.3936 17.1005 61.2591 17.8428 61.957 18.7621C64.7975 22.301 65.839 26.6093 66.1059 31.2637C66.1747 32.4177 66.235 33.5621 66.3038 34.7065V34.8507H67.3454V14.675H66.1059H47.5911H38.1228V15.6367H41.1699C41.6519 15.7521 41.9015 16.1464 41.9531 16.858C41.9531 17.31 42.0909 17.7524 42.0909 18.2044C42.0909 35.6489 42.0909 53.0935 42.0909 70.538C42.0951 70.9747 42.0779 71.4113 42.0392 71.8459C41.9978 72.1482 41.86 72.4237 41.6512 72.6216C41.4425 72.8195 41.1768 72.9265 40.903 72.923H37.8215V74.0866H64.9525H67.836H68.1803H69.3595V53.4685H68.318Z" fill="white"/>
</g>
<defs>
<clipPath id="clip0_89_122">
<rect width="72.002" height="73.1921" fill="white" transform="translate(0 0.904053)"/>
</clipPath>
</defs>
</svg>
