<svg width="205" height="55" viewBox="0 0 205 55" fill="none" xmlns="http://www.w3.org/2000/svg">
<path d="M62.8816 23.2235V19.5264H61.3445H60.9101H58.8049H46.4747V25.4086H57.0228C56.7332 26.5123 56.6107 27.2627 56.3433 27.947C53.5476 34.9108 45.3943 37.8795 38.288 34.4473C30.4911 30.7612 28.0406 20.2548 33.142 12.8495C35.1541 9.96242 38.2312 7.97508 41.7093 7.31641C45.1873 6.65775 48.7872 7.3806 51.732 9.32894C52.1664 9.61588 52.6343 10.0353 53.0909 10.4326L54.4944 11.8452L58.5933 7.68455L57.7468 6.85684L57.3569 6.49264L57.279 6.41539C54.2003 3.39093 50.1395 1.54534 45.8175 1.20632C43.0503 1.07317 40.2846 1.49885 37.6885 2.45749C35.0924 3.41613 32.7201 4.88771 30.7158 6.78284C28.7114 8.67796 27.1168 10.9571 26.0289 13.4817C24.941 16.0063 24.3825 18.7236 24.3872 21.4687C24.6546 33.2223 34.2559 42.2278 45.2606 41.7532C50.02 41.5314 54.5092 39.4978 57.7922 36.0764C61.0751 32.6549 62.8983 28.1099 62.8816 23.389V23.2235Z" fill="#ffffff"/>
<path d="M77.3059 15.4871C75.5866 15.4656 73.8807 15.7887 72.2907 16.4371C70.7007 17.0855 69.2594 18.0458 68.0535 19.2602C66.8476 20.4746 65.902 21.918 65.2736 23.5038C64.6451 25.0895 64.3467 26.7848 64.3964 28.4877C64.3964 36.2131 69.8543 42.0071 77.2836 42.0071C84.7129 42.0071 90.193 36.3013 90.2041 28.7636C90.2153 21.1266 84.802 15.4982 77.3059 15.4871ZM83.51 32.3945C82.9065 33.83 81.8123 35.0092 80.4193 35.7256C79.0264 36.4419 77.4234 36.6497 75.8913 36.3124C74.4316 35.9633 73.1181 35.1718 72.1339 34.0482C71.1496 32.9246 70.5435 31.5248 70.4 30.0438C70.4 29.5803 70.4 29.1278 70.4 28.6643C70.303 27.334 70.573 26.0027 71.1813 24.8129C71.7895 23.623 72.7131 22.6196 73.853 21.9102C74.6824 21.412 75.6113 21.0987 76.5753 20.992C77.5392 20.8853 78.515 20.9878 79.435 21.2923C80.3549 21.5969 81.1969 22.0962 81.9025 22.7555C82.6081 23.4149 83.1605 24.2185 83.5211 25.1107C84.048 26.2542 84.3197 27.4968 84.3178 28.7538C84.3159 30.0108 84.0403 31.2526 83.51 32.3945Z" fill="#ffffff"/>
<path d="M105.107 15.5202C97.7225 15.5202 92.2535 21.1045 92.2313 28.6643C92.209 36.2241 97.7336 41.9077 104.974 41.9629C106.701 41.9753 108.413 41.6434 110.009 40.9871C111.604 40.3308 113.05 39.3633 114.26 38.1423C115.471 36.9213 116.421 35.4716 117.055 33.8794C117.689 32.2872 117.993 30.585 117.95 28.874C117.961 21.2259 112.492 15.5313 105.107 15.5202ZM112.035 28.874C112.035 33.6747 108.827 36.8421 104.238 36.3455C102.871 36.1497 101.584 35.5846 100.518 34.7121C97.0653 31.931 97.2658 25.199 100.774 22.462C101.702 21.6428 102.852 21.1118 104.082 20.9352C105.312 20.7586 106.567 20.9442 107.691 21.4687C108.897 22.0017 109.936 22.8466 110.698 23.9147C111.461 24.9828 111.919 26.2346 112.024 27.5386C112.054 27.9832 112.058 28.429 112.035 28.874Z" fill="#ffffff"/>
<path d="M154.094 2.12231H148.157V41.3228H154.094V2.12231Z" fill="#ffffff"/>
<path d="M144.626 16.3479H139.146V17.8489C139.135 18.0069 139.135 18.1654 139.146 18.3234C137.881 17.0916 136.303 16.221 134.58 15.8034C132.857 15.3858 131.052 15.4367 129.356 15.9506C124.199 17.3412 120.445 22.5723 120.077 27.9028C119.844 30.8033 120.577 33.6995 122.165 36.1474C123.752 38.5954 126.106 40.4599 128.866 41.4552C130.41 42.0692 132.094 42.2518 133.736 41.9833C135.378 41.7148 136.914 41.0054 138.177 39.9322C138.573 39.6653 138.945 39.3663 139.291 39.0383C139.124 40.462 139.091 41.8525 138.868 42.9341C138.355 45.4172 137.23 47.4479 134.49 48.1321C133.218 48.4638 131.877 48.4325 130.622 48.042C129.366 47.6515 128.248 46.9176 127.395 45.9249C126.752 45.1628 126.189 44.3383 125.713 43.4638L120.712 45.9359L122.004 47.9555C122.004 47.9555 126.181 54.202 133.143 53.8268C140.305 53.4295 144.281 48.9157 144.515 41.5325C144.782 34.3369 144.66 18.3565 144.66 18.3565L144.626 16.3479ZM137.431 34.4031C136.913 35.077 136.236 35.6146 135.459 35.9687C134.682 36.3227 133.829 36.4824 132.976 36.4338C131.783 36.5212 130.59 36.2683 129.538 35.705C128.486 35.1418 127.619 34.2917 127.039 33.2554C125 30.1101 125.468 23.6208 129.801 21.6012C131.152 20.8767 132.728 20.6777 134.219 21.043C135.71 21.4084 137.011 22.3118 137.865 23.5766C138.965 25.1924 139.515 27.1133 139.437 29.0603C139.359 31.0073 138.656 32.8789 137.431 34.4031Z" fill="#ffffff"/>
<path d="M169.844 24.5368L170.623 24.1836L169.844 24.5368Z" fill="#ffffff"/>
<path d="M173.82 34.2817C173.121 35.0998 172.224 35.7297 171.213 36.1129C170.203 36.4962 169.111 36.6203 168.039 36.4739C166.967 36.3275 165.949 35.9153 165.081 35.2755C164.213 34.6357 163.522 33.789 163.072 32.8139L174.8 27.6711L176.137 27.0972C176.928 26.7661 177.563 26.4902 178.064 26.2364L179.913 25.4307C179.718 24.7932 179.487 24.1669 179.222 23.5546C178.966 22.9917 178.565 22.2854 178.042 21.3473C177.138 19.656 175.812 18.2224 174.19 17.1835C172.569 16.1447 170.705 15.5352 168.778 15.4134C166.85 15.2917 164.923 15.6616 163.182 16.488C161.44 17.3143 159.941 18.5694 158.828 20.1334C156.908 22.8274 155.973 26.0898 156.177 29.3817C156.167 31.1506 156.534 32.9018 157.254 34.5205C157.974 36.1391 159.031 37.5888 160.356 38.7745C161.681 39.9602 163.244 40.8552 164.942 41.4008C166.641 41.9465 168.436 42.1305 170.211 41.9408C174.277 41.5766 177.24 39.4246 179.59 36.0034L175.246 32.8029L173.82 34.2817ZM166.324 21.237H166.469L166.725 21.1597C168.35 20.7748 170.062 21.0154 171.514 21.8329C172.111 22.167 172.664 22.5709 173.163 23.0359L172.795 23.2124L169.799 24.5589C169.799 24.5589 163.929 27.1413 162.002 27.969C161.938 26.5431 162.318 25.1321 163.092 23.9277C163.865 22.7233 164.993 21.7839 166.324 21.237Z" fill="#ffffff"/>
</svg>
