<svg width="186" height="55" viewBox="0 0 186 55" fill="none" xmlns="http://www.w3.org/2000/svg">
<path d="M22.4942 25.8965C20.2023 24.4188 17.759 23.2477 15.4268 21.8686C13.9346 21.0425 12.5004 20.0987 11.1358 19.0447C10.5348 18.5709 10.0898 17.9005 9.86629 17.1322C9.64276 16.3638 9.65247 15.538 9.89398 14.7761C10.0963 14.0476 10.491 13.3993 11.0292 12.9111C11.5674 12.4229 12.2257 12.1162 12.9229 12.0288C16.8705 11.1313 21.8076 13.1233 23.5644 17.7313C23.6452 17.9392 23.8572 18.2019 24.0187 18.2129C24.6346 18.2786 25.2505 18.2129 25.8462 18.2129V7.81487H23.9582L23.0495 11.8427C22.9573 11.7847 22.8696 11.7188 22.787 11.6457C18.8494 7.6288 14.2354 6.89547 9.24782 8.60293C7.61788 9.12672 6.14198 10.1019 4.96558 11.4324C3.78918 12.7628 2.95288 14.4027 2.53912 16.1902C2.12536 17.9778 2.14842 19.8514 2.60603 21.6264C3.06363 23.4013 3.93998 25.0164 5.14871 26.3124C6.5724 27.7047 8.16984 28.8727 9.89398 29.782C12.0445 30.9422 14.2253 32.0368 16.3556 33.2517C17.2538 33.7496 18.0775 34.3917 18.7989 35.1562C19.2397 35.6394 19.5706 36.2273 19.7655 36.8732C19.9605 37.5191 20.014 38.2053 19.9219 38.8775C19.8298 39.5497 19.5947 40.1895 19.235 40.7461C18.8754 41.3027 18.4012 41.761 17.8499 42.0845C16.5551 42.8615 15.0707 43.1865 13.5993 43.0149C11.8199 42.8995 10.088 42.3469 8.53475 41.3987C6.98146 40.4506 5.64749 39.1318 4.63379 37.5422C4.22994 36.9402 4.02801 36.0208 3.50301 35.7144C2.80789 35.5172 2.08294 35.4763 1.37268 35.594V46.6925H1.51403C2.12991 46.6925 2.90732 46.8785 3.32127 46.5502C3.73522 46.2218 3.68474 45.3681 3.83618 44.7442C4.04821 43.8686 4.25013 42.993 4.49245 41.986C4.69437 42.194 4.85591 42.3253 4.98717 42.4785C7.30292 45.166 10.4446 46.8437 13.8215 47.1959C14.0102 47.2302 14.1959 47.2815 14.3767 47.3492H16.5374C17.859 47.1047 19.1669 46.7795 20.4547 46.3751C26.7548 44.0437 28.9054 38.0785 27.5222 32.5402C27.1285 31.1287 26.4817 29.8153 25.6189 28.6752C24.7561 27.5351 23.6942 26.5908 22.4942 25.8965Z" fill="white"/>
<path d="M97.3584 41.6467C97.3584 39.0636 97.3584 36.4915 97.3584 33.9194C97.3584 31.1283 97.3584 28.3482 97.2575 25.5681C97.1831 24.4001 96.8882 23.2611 96.391 22.2217C95.8938 21.1824 95.205 20.2648 94.3672 19.5259C93.5295 18.787 92.5606 18.2426 91.5208 17.9264C90.4809 17.6101 89.3922 17.5288 88.3222 17.6875C85.4701 18.0306 82.8597 19.5852 81.063 22.0109C80.9347 22.2271 80.8297 22.4584 80.75 22.7005C80.5747 22.5462 80.4246 22.3613 80.3057 22.1532C79.5956 20.5881 78.436 19.3151 77.0014 18.5256C75.5667 17.7361 73.9344 17.4728 72.3498 17.7751C71.0427 17.9428 69.7811 18.3982 68.6421 19.1134C67.5032 19.8286 66.5111 20.7885 65.7266 21.9343C65.5853 22.1313 65.4036 22.3064 65.242 22.4925L65.0603 22.4049V18.1582C64.5028 18.1764 63.9467 18.2276 63.3944 18.3114C60.9915 18.8368 58.5986 19.4059 56.1957 19.9422C55.0346 20.194 55.0649 20.194 55.0346 21.4308C55.0346 21.9671 55.1659 22.2408 55.6707 22.3393C56.1755 22.4378 56.4885 22.6348 56.9126 22.7114C57.5385 22.8209 57.7001 23.1602 57.7001 23.8059C57.7001 29.2786 57.7001 34.8388 57.7001 40.3552C57.7001 41.0338 57.7001 41.7124 57.7001 42.391C57.7075 42.785 57.5873 43.1694 57.3605 43.4774C57.1336 43.7853 56.8143 43.9973 56.4582 44.0766C55.9534 44.2407 55.4486 44.383 54.9741 44.5144V46.397H68.2406V44.5034C67.7762 44.383 67.3723 44.2736 66.9786 44.1532C66.7379 44.1322 66.5038 44.0576 66.2908 43.9341C66.0779 43.8106 65.8907 43.6409 65.741 43.4354C65.5913 43.23 65.4823 42.9933 65.4208 42.7402C65.3592 42.487 65.3465 42.2229 65.3834 41.9641C65.3834 36.4769 65.3834 31.0043 65.3834 25.5462C65.393 25.401 65.4336 25.2602 65.5019 25.1348C65.5702 25.0095 65.6644 24.903 65.7771 24.8238C66.8213 24.2473 67.9132 23.7782 69.0382 23.4228C69.4918 23.2752 69.9686 23.2307 70.4388 23.2919C70.909 23.3532 71.3625 23.5189 71.7709 23.7788C72.1794 24.0388 72.5339 24.3872 72.8125 24.8024C73.091 25.2176 73.2875 25.6907 73.3898 26.192C73.5902 26.8611 73.7023 27.5575 73.7229 28.2607C73.7229 32.8869 73.7229 37.5167 73.7229 42.1502C73.7535 42.6149 73.6221 43.0752 73.3548 43.4399C73.0875 43.8047 72.7036 44.0475 72.2792 44.1203C71.8248 44.2626 71.3604 44.3721 70.8859 44.5034V46.386H84.0818V44.5034L83.0721 44.2298C81.5476 43.8029 81.2346 43.3542 81.2245 41.6686V40.7383C81.2245 35.5794 81.2245 30.4278 81.2245 25.2835C81.2374 25.1664 81.2752 25.0541 81.3347 24.9554C81.3942 24.8567 81.474 24.7742 81.5678 24.7144C82.5046 24.1883 83.4806 23.7489 84.4856 23.401C85.3273 23.0751 86.2507 23.1009 87.0758 23.4732C87.9009 23.8456 88.5685 24.5378 88.9482 25.4149C89.2578 26.0585 89.4497 26.761 89.5136 27.4835C89.6246 29.5303 89.6347 31.588 89.6549 33.6457C89.6549 36.4039 89.6549 39.1184 89.6549 41.9203C89.6932 42.1877 89.6803 42.4607 89.617 42.7224C89.5537 42.9841 89.4413 43.2289 89.2869 43.4415C89.1325 43.654 88.9394 43.8298 88.7196 43.9579C88.4997 44.086 88.2579 44.1637 88.0092 44.186L86.7876 44.5034V46.3641H100.276V44.5034L99.3575 44.2736C97.6815 43.8905 97.3685 43.4855 97.3584 41.6467Z" fill="white"/>
<path d="M154.352 40.9353C154.281 36.1741 154.352 31.4129 154.352 26.7064C154.261 20.4348 149.688 16.593 144.054 17.9502C141.907 18.5281 140.024 19.9274 138.753 21.8905C138.586 22.1054 138.407 22.3101 138.218 22.5034L138.037 22.4159V18.1472C137.411 18.2129 136.875 18.2129 136.361 18.3223C133.968 18.8477 131.565 19.4169 129.172 19.9422C128.051 20.194 128.082 20.183 128.051 21.398C128.051 21.9671 128.203 22.2626 128.728 22.3612C129.253 22.4597 129.515 22.6457 129.909 22.7114C130.515 22.8209 130.717 23.1383 130.707 23.8059C130.707 29.7383 130.707 35.6706 130.707 41.6029C130.707 41.8328 130.707 42.0736 130.707 42.3034C130.712 42.7395 130.574 43.1634 130.317 43.4986C130.059 43.8338 129.7 44.0582 129.303 44.1313C128.839 44.2736 128.374 44.383 127.92 44.5144V46.4079H141.358C141.712 44.788 141.611 44.5691 140.288 44.2189C138.965 43.8686 138.582 43.3651 138.572 41.9313C138.572 36.466 138.572 30.9933 138.572 25.5134C138.58 25.3565 138.622 25.2039 138.694 25.0673C138.766 24.9306 138.866 24.8137 138.986 24.7253C139.89 24.1888 140.84 23.7489 141.823 23.4119C142.32 23.2159 142.851 23.1453 143.377 23.2052C143.904 23.2652 144.41 23.4543 144.859 23.7581C145.307 24.0619 145.686 24.4725 145.966 24.9587C146.247 25.4449 146.421 25.9939 146.477 26.5641C146.639 27.4842 146.72 28.4186 146.719 29.3552C146.719 33.1751 146.719 37.0169 146.719 40.8258C146.719 43.0915 146.719 43.8905 144.286 44.394C144.184 44.428 144.091 44.4872 144.014 44.567C143.937 44.6468 143.878 44.7449 143.842 44.8537C143.811 45.3603 143.811 45.8685 143.842 46.3751H157.401V44.5034C157.216 44.431 157.027 44.3689 156.836 44.3174C154.817 43.989 154.382 43.4089 154.352 40.9353Z" fill="white"/>
<path d="M125.941 44.1423C125.669 44.1778 125.394 44.1506 125.133 44.0624C124.871 43.9742 124.63 43.827 124.425 43.6306C124.22 43.4342 124.056 43.1929 123.943 42.9226C123.83 42.6524 123.771 42.3593 123.77 42.0627C123.745 41.6764 123.745 41.2887 123.77 40.9025C123.77 37.2577 123.77 33.6129 123.77 29.9572C123.791 28.6307 123.74 27.3042 123.619 25.9841C123.377 23.738 122.42 21.6538 120.912 20.0912C119.404 18.5286 117.441 17.5855 115.36 17.4249C113.246 17.2307 111.117 17.4967 109.099 18.2072C107.081 18.9177 105.214 20.0584 103.608 21.5622C103.416 21.7102 103.213 21.8419 103.002 21.9562L104.214 23.6855C107.112 22.0219 108.454 21.6388 110.797 21.7701C111.533 21.7707 112.26 21.9362 112.935 22.2562C113.609 22.5762 114.215 23.0437 114.714 23.6295C115.214 24.2153 115.596 24.9067 115.838 25.6603C116.079 26.4139 116.174 27.2135 116.117 28.0089L113.624 28.5234C110.915 28.9685 108.275 29.8156 105.779 31.0408C104.733 31.61 103.817 32.4234 103.096 33.4224C102.375 34.4215 101.868 35.5814 101.61 36.8186C101.352 38.0558 101.35 39.3396 101.605 40.5776C101.86 41.8156 102.365 42.9769 103.083 43.9781C105.032 46.6597 107.697 47.4368 110.686 47.0318C111.749 46.9548 112.779 46.595 113.684 45.9842C114.59 45.3733 115.342 44.5302 115.875 43.5293C115.953 43.4276 116.045 43.339 116.148 43.2666C116.239 43.3214 116.299 43.3432 116.319 43.3761C116.39 43.5093 116.451 43.6483 116.501 43.792C116.763 44.493 117.174 45.1171 117.7 45.6135C118.226 46.1099 118.853 46.4646 119.53 46.6487C121.764 47.2429 124.115 47.0394 126.234 46.0686C126.313 46.0292 126.383 45.97 126.438 45.8958C126.492 45.8216 126.529 45.7346 126.547 45.6418C126.547 45.1602 126.547 44.6676 126.547 44.1423H125.941ZM115.986 39.3811C116.016 39.7458 115.973 40.1131 115.859 40.458C115.746 40.8028 115.565 41.117 115.329 41.379C115.093 41.641 114.808 41.8446 114.493 41.9758C114.177 42.107 113.839 42.1628 113.502 42.1393C111.049 42.2159 109.514 40.6069 109.282 37.6845C109.232 37.0144 109.232 36.3408 109.282 35.6706C109.312 35.0122 109.486 34.3709 109.789 33.7999C110.093 33.2289 110.518 32.7445 111.029 32.387C112.554 31.4802 114.221 30.8865 115.946 30.6358C115.946 30.8656 115.946 31.0955 115.946 31.3253L115.986 39.3811Z" fill="white"/>
<path d="M183.722 44.1861H183.197C181.602 44.1861 181.007 43.5513 180.855 41.811C180.855 41.4498 180.855 41.0886 180.855 40.7165C180.855 36.1633 180.916 31.61 180.794 27.0568C180.769 24.5888 179.877 22.2242 178.299 20.4447C176.721 18.6653 174.577 17.6049 172.303 17.4797C168.528 17.1357 164.767 18.3039 161.733 20.7633C161.187 21.1682 160.723 21.6498 160.168 22.1205L161.298 23.7623L161.723 23.4996C163.577 22.2542 165.745 21.6686 167.922 21.825C169.298 21.8427 170.616 22.4291 171.606 23.4645C172.597 24.4998 173.186 25.9061 173.253 27.3961C173.253 27.8558 173.253 28.1075 172.728 28.1732C172.031 28.2608 171.354 28.4359 170.708 28.5891C168.024 29.0336 165.409 29.8732 162.934 31.0847C161.884 31.6612 160.966 32.4848 160.248 33.4954C159.529 34.506 159.028 35.6779 158.782 36.9255C158.535 38.173 158.548 39.4646 158.821 40.7057C159.094 41.9468 159.62 43.106 160.36 44.0986C162.379 46.7802 165.054 47.5026 168.063 47.0319C169.105 46.9418 170.11 46.5752 170.991 45.9644C171.871 45.3536 172.599 44.5174 173.111 43.5294C173.162 43.4309 173.283 43.3652 173.404 43.2558C173.506 43.3747 173.595 43.5071 173.666 43.6498C173.967 44.5085 174.479 45.2614 175.146 45.8268C175.814 46.3922 176.611 46.7484 177.453 46.8568C179.458 47.2099 181.514 46.9639 183.399 46.1453C183.503 46.0812 183.593 45.9946 183.664 45.891C183.735 45.7875 183.786 45.6691 183.813 45.5434C183.821 45.0889 183.79 44.6347 183.722 44.1861ZM170.405 42.1394C169.56 42.1925 168.724 41.921 168.044 41.3726C167.365 40.8242 166.885 40.0339 166.69 39.1404C166.3 37.7674 166.241 36.3092 166.518 34.9046C166.617 34.3786 166.814 33.8802 167.097 33.4398C167.38 32.9993 167.743 32.6262 168.164 32.3434C169.705 31.4396 171.373 30.8183 173.101 30.5046C173.101 30.8657 173.101 31.1394 173.101 31.424C173.101 34.018 173.101 36.623 173.101 39.217C173.151 39.6135 173.116 40.0173 172.998 40.3966C172.881 40.776 172.683 41.1206 172.422 41.4037C172.161 41.6867 171.843 41.9004 171.494 42.028C171.144 42.1556 170.771 42.1938 170.405 42.1394Z" fill="white"/>
<path d="M51.4201 38.5491C50.4296 39.3055 49.3074 39.8353 48.1218 40.1063C46.9363 40.3773 45.7123 40.3837 44.5243 40.1253C41.5661 39.4795 39.6478 37.3999 38.2343 34.6526C37.9213 34.0287 37.9718 33.7223 38.6079 33.4158C41.5863 32.0476 44.5243 30.5919 47.4422 29.18L52.4096 26.7501C52.0014 24.0334 50.664 21.583 48.6638 19.8875C44.0599 16.0457 35.2559 16.3959 31.6111 24.3093C29.9083 28.0907 29.5489 32.4193 30.6015 36.4695C31.1735 39.2225 32.5149 41.7172 34.4429 43.6133C36.3708 45.5094 38.7913 46.7146 41.3743 47.0646C44.0093 47.3859 46.6714 46.8144 48.9946 45.4287C51.3179 44.043 53.188 41.9112 54.3481 39.3263C55.0043 37.8924 54.974 37.7173 53.9038 36.5352C53.0658 37.2138 52.2783 37.9362 51.4201 38.5491ZM37.1439 22.7113C37.3733 22.1464 37.736 21.657 38.1953 21.2924C38.6547 20.9277 39.1945 20.7007 39.7605 20.6341C40.3266 20.5675 40.8988 20.6638 41.4196 20.9131C41.9404 21.1625 42.3914 21.5562 42.7272 22.0546C43.7232 23.5882 44.3607 25.361 44.5849 27.2208C44.5823 27.3258 44.5561 27.4285 44.5086 27.5201C44.4611 27.6116 44.3937 27.6892 44.3123 27.7462L37.0228 31.6317C36.2857 28.5452 35.8617 25.6009 37.1439 22.7113Z" fill="white"/>
</svg>
