<svg width="211" height="57" viewBox="0 0 211 57" fill="white" xmlns="http://www.w3.org/2000/svg">
<path d="M45.4063 1.64449C41.8638 1.60172 38.3496 2.27874 35.0775 3.63437C31.8054 4.99 28.8437 6.9959 26.3728 9.53004C23.8604 12.0217 21.8675 14.9857 20.5093 18.2506C19.1512 21.5156 18.4547 25.0168 18.46 28.552C18.4653 32.0872 19.1724 35.5863 20.5404 38.8471C21.9084 42.108 23.9102 45.0659 26.4301 47.5501C28.8974 50.063 31.8483 52.0519 35.1054 53.3972C38.3626 54.7425 41.8586 55.4164 45.3834 55.3784C48.9648 55.4537 52.5253 54.8148 55.8562 53.4992C59.1871 52.1835 62.2215 50.2176 64.7816 47.7166C67.3417 45.2155 69.376 42.2296 70.7653 38.9339C72.1546 35.6381 72.871 32.0988 72.8725 28.5231C72.874 24.9475 72.1607 21.4075 70.7742 18.1106C69.3877 14.8136 67.3559 11.826 64.798 9.32282C62.24 6.8196 59.2073 4.85109 55.8775 3.53262C52.5478 2.21415 48.9878 1.57224 45.4063 1.64449ZM57.8928 40.3398C57.698 40.7172 57.369 41.0085 56.9703 41.1567C56.5717 41.3049 56.132 41.2992 55.7372 41.1409L55.3474 40.9464C52.4902 39.2298 49.316 38.1049 46.014 37.6388C45.028 37.5014 44.0304 37.4328 43.0443 37.3526C42.4596 37.2954 41.8977 37.2954 41.2786 37.2725C38.8551 37.2985 36.4384 37.5321 34.055 37.9707L31.8994 38.4056C31.6727 38.4706 31.435 38.4886 31.2011 38.4587C30.9671 38.4287 30.7417 38.3513 30.5388 38.2313C30.3359 38.1112 30.1597 37.9511 30.021 37.7606C29.8823 37.5702 29.7841 37.3535 29.7323 37.1237C29.6736 36.9088 29.6582 36.6843 29.687 36.4634C29.7159 36.2425 29.7884 36.0295 29.9004 35.8368C30.0125 35.6441 30.1617 35.4755 30.3395 35.3408C30.5173 35.2061 30.7201 35.108 30.9362 35.0522C31.5854 34.8722 32.2437 34.727 32.9084 34.6173C34.3072 34.396 35.7061 34.19 37.1049 33.9993C37.6897 33.9192 38.2515 33.8734 38.8592 33.8505C39.8797 33.8505 40.9002 33.7589 41.9207 33.7818C45.2383 33.8108 48.5309 34.3592 51.6782 35.407C53.626 36.0701 55.4948 36.9452 57.2507 38.0164C57.4479 38.1248 57.6213 38.2714 57.7608 38.4477C57.9002 38.624 58.0029 38.8264 58.0628 39.0429C58.1226 39.2595 58.1384 39.4858 58.1092 39.7085C58.08 39.9312 58.0065 40.1459 57.8928 40.3398ZM60.7135 33.5987C60.4044 33.8703 60.0218 34.0446 59.6137 34.0995C59.2056 34.1545 58.7904 34.0878 58.4203 33.9077C58.0648 33.7132 57.7208 33.4957 57.3539 33.3011C55.037 32.0336 52.5616 31.0791 49.9927 30.4628C48.0836 29.9888 46.1397 29.6673 44.1795 29.5014C42.4906 29.3527 40.7936 29.3183 39.1 29.3984C36.5209 29.5045 33.9643 29.9234 31.4866 30.6459C31.2208 30.7459 30.938 30.7926 30.6541 30.7834C30.3703 30.7742 30.091 30.7093 29.8323 30.5924C29.3097 30.3563 28.9026 29.9227 28.7004 29.387C28.4981 28.8512 28.5174 28.2572 28.7539 27.7357C28.9905 27.2141 29.4249 26.8077 29.9616 26.6059C30.9706 26.2854 32.0026 26.0451 33.0345 25.8276C34.6034 25.4753 36.1988 25.2532 37.8044 25.1638L40.8543 24.9921C45.4247 25.023 49.9595 25.7961 54.281 27.2811C56.3674 28.003 58.3732 28.9389 60.2663 30.0737C60.7553 30.3481 61.1265 30.7919 61.3097 31.3212C61.4536 31.7163 61.4737 32.1459 61.3672 32.5527C61.2607 32.9595 61.0327 33.3243 60.7135 33.5987ZM64.3597 25.2554C63.9915 25.5791 63.5338 25.7841 63.0467 25.8434C62.5597 25.9026 62.066 25.8133 61.6307 25.5873C61.2294 25.4041 60.8511 25.1638 60.4841 24.9578C58.8615 24.1001 57.1607 23.3988 55.4047 22.8634C53.0866 22.1554 50.7121 21.6461 48.3072 21.3412C47.1606 21.2039 46.0828 21.1123 44.9706 21.0322C43.5374 20.9045 42.0977 20.8625 40.6594 20.9063C38.8573 20.9387 37.0584 21.0686 35.2704 21.2954C33.5237 21.5339 31.7959 21.8933 30.0992 22.3712C29.4603 22.5398 28.7809 22.456 28.2022 22.1374C27.6236 21.8187 27.1903 21.2897 26.9924 20.6603C26.7945 20.0309 26.8473 19.3496 27.1398 18.7581C27.4323 18.1666 27.9419 17.7103 28.5628 17.4843C29.0558 17.324 29.5488 17.1867 30.0534 17.0608C31.8306 16.6075 33.6398 16.2899 35.4653 16.1109C36.7724 15.985 38.0796 15.9049 39.3752 15.8247C40.0861 15.8247 40.797 15.7675 41.5079 15.7332C43.6691 15.7526 45.8277 15.8863 47.9747 16.1338C51.2044 16.482 54.3896 17.1608 57.4801 18.1595C59.6766 18.8661 61.7938 19.7981 63.7978 20.9406C64.1462 21.1069 64.4533 21.348 64.6972 21.6468C64.941 21.9457 65.1155 22.2947 65.2081 22.6688C65.3343 23.1356 65.3212 23.629 65.1705 24.0884C65.0198 24.5479 64.738 24.9534 64.3597 25.2554Z" fill="#ffffff"/>
<path d="M191.46 22.314H187.39C187.288 22.3061 187.186 22.3354 187.104 22.3964C187.022 22.4574 186.965 22.546 186.943 22.6459C186.828 23.0122 186.691 23.367 186.564 23.7332L182.758 34.6173C182.758 34.7775 182.632 34.9263 182.574 35.0751H182.46C182.46 34.9607 182.345 34.8462 182.299 34.7318L179.455 27.3155C178.859 25.7704 178.309 24.2253 177.678 22.6803C177.575 22.417 177.437 22.2797 177.151 22.314C177.055 22.3197 176.96 22.3197 176.864 22.314H170.455C170.225 22.314 170.168 22.2454 170.179 22.0165C170.18 21.5643 170.214 21.1129 170.283 20.666C170.32 20.3533 170.448 20.0585 170.652 19.8183C170.856 19.5781 171.126 19.4032 171.429 19.3155C171.756 19.2373 172.091 19.1988 172.427 19.201C173.146 19.2112 173.859 19.3388 174.537 19.5787C174.835 19.6702 174.938 19.5787 174.972 19.2926V16.1109C174.972 15.6874 174.972 15.6187 174.502 15.5272C173.894 15.4013 173.287 15.2754 172.668 15.1953C171.653 15.0539 170.622 15.0848 169.618 15.2868C168.939 15.4049 168.296 15.6714 167.733 16.0672C167.17 16.4629 166.701 16.9781 166.361 17.5758C165.875 18.4587 165.6 19.4419 165.559 20.4485C165.559 20.9292 165.559 21.4099 165.559 21.8906C165.559 22.3713 165.501 22.2682 165.18 22.2682H163.736C163.311 22.2682 163.243 22.2682 163.231 22.7375C163.231 23.7904 163.231 24.8434 163.231 25.8963C163.231 25.8963 163.231 25.965 163.231 25.9993C163.231 26.2969 163.323 26.3426 163.632 26.3541C163.942 26.3655 164.492 26.3541 164.928 26.3541C165.547 26.3541 165.547 26.3541 165.547 26.995V40.1795C165.547 40.3054 165.547 40.4199 165.547 40.5458C165.547 40.8777 165.616 40.9349 165.96 40.9349C167.229 40.9349 168.502 40.9349 169.778 40.9349C170.145 40.9349 170.191 40.9349 170.202 40.5229C170.208 40.4276 170.208 40.3321 170.202 40.2368V26.8233C170.202 26.3541 170.202 26.3541 170.695 26.3426C171.716 26.3426 172.736 26.3426 173.757 26.3426C173.833 26.3243 173.913 26.3225 173.99 26.3374C174.068 26.3523 174.141 26.3837 174.205 26.4292C174.269 26.4748 174.322 26.5335 174.362 26.6015C174.401 26.6695 174.426 26.7451 174.433 26.8233C175.962 30.501 177.491 34.171 179.02 37.8333L180.086 40.3856C180.136 40.4747 180.163 40.5752 180.163 40.6774C180.163 40.7796 180.136 40.8801 180.086 40.9692C179.857 41.3126 179.639 41.6788 179.375 41.9993C179.235 42.1682 179.06 42.3055 178.862 42.4022C178.664 42.4989 178.449 42.5527 178.229 42.5601C177.908 42.5888 177.586 42.5888 177.265 42.5601C176.717 42.4716 176.186 42.2938 175.695 42.0336C175.408 41.8848 175.27 41.9306 175.144 42.2053C174.709 43.1438 174.273 44.0937 173.849 45.0436C173.722 45.3298 173.757 45.4442 174.055 45.593C174.353 45.7418 174.926 45.9936 175.374 46.1652C176.56 46.5661 177.818 46.7142 179.066 46.6001C179.935 46.555 180.779 46.2924 181.521 45.8364C182.262 45.3804 182.877 44.7458 183.308 43.9907C183.859 43.1055 184.316 42.1658 184.673 41.1867L190.222 26.8233L191.77 22.8405C191.919 22.4399 191.839 22.314 191.46 22.314Z" fill="#ffffff"/>
<path d="M120.188 27.6359C119.792 26.485 119.154 25.4324 118.315 24.5497C117.476 23.667 116.457 22.9748 115.326 22.52C113.786 21.8785 112.086 21.7189 110.453 22.0622C108.961 22.3981 107.616 23.1999 106.612 24.3512L106.314 24.6602H106.222C106.222 24.5458 106.222 24.4313 106.222 24.3169V22.6803C106.222 22.3598 106.13 22.2797 105.809 22.2682H102.071C101.59 22.2682 101.544 22.2682 101.532 22.8062V45.8448C101.526 45.9401 101.526 46.0356 101.532 46.1309C101.532 46.3598 101.624 46.4285 101.842 46.4514H105.477C106.188 46.4514 106.188 46.4514 106.188 45.7532V39.1838C106.188 39.0579 106.188 38.9206 106.188 38.7833H106.302C106.396 38.8612 106.484 38.9454 106.566 39.035C107.476 39.9883 108.622 40.685 109.889 41.0548C111.155 41.4245 112.497 41.4542 113.778 41.1409C115.343 40.8436 116.79 40.1094 117.953 39.0235C119.116 37.9376 119.947 36.5446 120.348 35.0064C120.723 33.7177 120.878 32.3752 120.807 31.035C120.79 29.8756 120.581 28.727 120.188 27.6359ZM115.338 34.7661C114.876 35.6086 114.167 36.2901 113.306 36.7196C112.446 37.1492 111.474 37.3061 110.522 37.1695C109.482 37.017 108.514 36.5467 107.753 35.8233C106.991 35.0999 106.472 34.1589 106.268 33.1295C106.209 32.8846 106.167 32.6361 106.142 32.3855C106.142 32.1338 106.142 31.882 106.142 31.6302C106.077 30.266 106.508 28.9245 107.357 27.8534C107.769 27.3329 108.284 26.903 108.87 26.5908C109.456 26.2786 110.1 26.0908 110.763 26.0392C111.425 25.9876 112.091 26.0733 112.718 26.291C113.346 26.5086 113.921 26.8536 114.409 27.304C115.186 28.0228 115.726 28.9609 115.957 29.9936C116.354 31.6058 116.134 33.3082 115.338 34.7661Z" fill="#ffffff"/>
<path d="M98.8839 30.314C98.2915 29.4607 97.5058 28.7588 96.5907 28.2654C95.512 27.6481 94.3551 27.1784 93.1509 26.8691C91.9126 26.5143 90.6513 26.2053 89.4015 25.8505C88.6561 25.6316 87.9458 25.3079 87.2918 24.8891C87.0132 24.6907 86.7808 24.4345 86.6107 24.138C86.4406 23.8416 86.3368 23.5119 86.3063 23.1717C86.2758 22.8314 86.3194 22.4886 86.434 22.1667C86.5487 21.8448 86.7318 21.5515 86.9707 21.3069C87.432 20.8645 88.0078 20.5593 88.6333 20.4256C89.6563 20.1965 90.7175 20.1965 91.7406 20.4256C93.2645 20.7764 94.7005 21.4346 95.9601 22.3598C96.0854 22.4542 96.2156 22.542 96.3499 22.623C96.414 22.668 96.4932 22.686 96.5704 22.6731C96.6477 22.6603 96.7167 22.6176 96.7627 22.5544L96.9806 22.2568L98.8724 19.5901C99.1132 19.2468 99.1018 19.1438 98.7578 18.8805C97.7333 18.0834 96.6026 17.4324 95.3982 16.9464C93.4127 16.1677 91.2765 15.8469 89.1493 16.0079C87.7911 16.0827 86.4651 16.4496 85.2623 17.0837C84.4343 17.5039 83.7017 18.0895 83.1099 18.8042C82.5182 19.5189 82.08 20.3474 81.8225 21.2382C81.5 22.4099 81.4568 23.6406 81.6964 24.8319C81.8841 26.0357 82.4741 27.1408 83.3704 27.9678C84.043 28.5951 84.8187 29.1023 85.6636 29.4671C86.7168 29.9443 87.8104 30.3273 88.9314 30.6116C89.8716 30.8634 90.8233 31.0923 91.7521 31.3555C92.5098 31.5536 93.2356 31.858 93.9077 32.2597C94.2071 32.4539 94.46 32.7115 94.6484 33.0143C94.8368 33.3171 94.956 33.6576 94.9976 34.0116C95.0392 34.3657 95.0021 34.7245 94.8891 35.0626C94.776 35.4007 94.5897 35.7097 94.3434 35.9678C93.9262 36.3704 93.4193 36.6685 92.8643 36.8376C92.0286 37.0662 91.1595 37.1475 90.2959 37.078C88.8568 36.9995 87.4521 36.609 86.1796 35.9335C85.2874 35.4385 84.4496 34.8516 83.68 34.1824C83.3819 33.9421 83.3016 33.9421 83.0494 34.1824C82.7971 34.4228 82.4875 34.8348 82.2123 35.1667C81.7193 35.7389 81.2377 36.3112 80.7562 36.9063C80.5154 37.1924 80.5268 37.3069 80.7562 37.5701L81.0199 37.8104C83.8314 40.1436 87.3853 41.3977 91.0412 41.3469C91.3393 41.3469 91.9011 41.3469 92.463 41.2439C93.8791 41.1197 95.248 40.6734 96.4646 39.9392C97.8887 39.1115 98.9549 37.7863 99.4572 36.2196C99.7905 35.1626 99.9037 34.0487 99.7897 32.9464C99.7152 32.0067 99.4036 31.1011 98.8839 30.314Z" fill="#ffffff"/>
<path d="M137.903 23.5844C135.744 22.1326 133.103 21.5783 130.542 22.0393C128.233 22.3749 126.126 23.536 124.612 25.3066C123.097 27.0772 122.279 29.3366 122.309 31.6645C122.309 31.9964 122.309 32.3398 122.309 32.6717C122.298 32.8126 122.298 32.9542 122.309 33.0951C122.531 34.7761 123.205 36.3657 124.258 37.6956C125.312 39.0254 126.707 40.0459 128.294 40.6488C130.073 41.3758 132.025 41.5706 133.913 41.2096C135.247 41.0081 136.524 40.5277 137.66 39.8C138.796 39.0723 139.766 38.1136 140.505 36.9864C141.822 35.0481 142.366 32.6889 142.03 30.3712C141.887 29.0059 141.443 27.6892 140.729 26.5157C140.016 25.3422 139.05 24.3411 137.903 23.5844ZM136.974 34.2053C136.581 35.1268 135.919 35.9089 135.074 36.4498C134.23 36.9908 133.242 37.2655 132.238 37.2382C131.188 37.2407 130.162 36.9202 129.3 36.3202C128.439 35.7202 127.783 34.8699 127.423 33.8848C127.099 33.0999 126.946 32.2553 126.974 31.407C127.001 30.5586 127.209 29.7258 127.583 28.9635C127.932 28.1675 128.49 27.4808 129.199 26.9769C129.908 26.4729 130.74 26.1707 131.608 26.1023C132.408 25.9893 133.223 26.0696 133.985 26.3364C134.747 26.6033 135.434 27.049 135.988 27.6359C136.766 28.4308 137.278 29.4461 137.456 30.5429C137.685 31.7839 137.516 33.0655 136.974 34.2053Z" fill="#ffffff"/>
<path d="M154.081 22.2454H150.011C149.61 22.2454 149.598 22.2454 149.587 21.8104V17.9192C149.587 17.7933 149.587 17.6788 149.587 17.5644C149.584 17.4955 149.555 17.4301 149.506 17.3814C149.457 17.3326 149.392 17.304 149.323 17.3011H145.264C145.035 17.3011 144.966 17.3927 144.943 17.6102C144.937 17.7169 144.937 17.8239 144.943 17.9306V21.7418C144.943 22.2682 144.943 22.2682 144.427 22.2682H143.097C142.718 22.2682 142.638 22.3484 142.638 22.7031V25.9421C142.638 26.2854 142.638 26.3312 143.04 26.3426C143.441 26.3541 143.636 26.3426 143.934 26.3426C145.08 26.3426 144.931 26.2167 144.943 27.3269V35.5901C144.933 36.2158 144.987 36.8408 145.103 37.4557C145.23 38.3404 145.629 39.1639 146.245 39.812C146.861 40.4601 147.665 40.9005 148.543 41.0723C149.435 41.2647 150.353 41.315 151.261 41.221C152.218 41.1348 153.152 40.8708 154.012 40.4428C154.134 40.3954 154.236 40.3088 154.302 40.1968C154.369 40.0848 154.396 39.9539 154.379 39.8248C154.379 38.8634 154.379 37.902 154.379 36.9521V36.769C154.379 36.4714 154.23 36.3913 153.944 36.4828L153.714 36.5744C153.297 36.7265 152.872 36.8564 152.442 36.9635C151.88 37.1008 151.294 37.1008 150.733 36.9635C150.479 36.9042 150.247 36.7753 150.063 36.5913C149.878 36.4072 149.749 36.1754 149.69 35.922C149.61 35.6113 149.563 35.2928 149.552 34.9721C149.552 33.6445 149.552 32.3283 149.552 31.0122V26.9721C149.552 26.8462 149.552 26.7318 149.552 26.6059C149.55 26.5758 149.555 26.5457 149.566 26.5177C149.577 26.4897 149.594 26.4645 149.616 26.4437C149.638 26.423 149.664 26.4073 149.693 26.3978C149.721 26.3882 149.752 26.385 149.782 26.3884H153.806C153.917 26.3941 154.028 26.3941 154.139 26.3884C154.178 26.3885 154.217 26.3805 154.254 26.3647C154.29 26.3489 154.323 26.3257 154.35 26.2967C154.377 26.2676 154.397 26.2333 154.41 26.1959C154.423 26.1585 154.428 26.1189 154.425 26.0794C154.431 25.9956 154.431 25.9114 154.425 25.8276V22.6574C154.46 22.3598 154.391 22.2454 154.081 22.2454Z" fill="#ffffff"/>
<path d="M160.869 22.2454H157.166C156.558 22.2454 156.535 22.2454 156.535 22.8634V40.2139C156.535 40.3398 156.535 40.4542 156.535 40.5687C156.535 40.6831 156.615 40.9235 156.902 40.9349C156.974 40.9407 157.047 40.9407 157.12 40.9349H160.559C161.121 40.9349 161.144 40.9349 161.144 40.3512V22.8748C161.15 22.7795 161.15 22.684 161.144 22.5887C161.167 22.3712 161.087 22.2454 160.869 22.2454Z" fill="#ffffff"/>
<path d="M158.897 14.005C158.317 14.0028 157.75 14.1719 157.267 14.4909C156.783 14.81 156.405 15.2648 156.18 15.798C155.956 16.3311 155.894 16.9188 156.003 17.4869C156.112 18.0551 156.387 18.5782 156.794 18.9905C157.201 19.4027 157.72 19.6855 158.288 19.8034C158.855 19.9212 159.445 19.8687 159.983 19.6526C160.52 19.4364 160.982 19.0662 161.309 18.5887C161.636 18.1112 161.814 17.5477 161.821 16.9692C161.827 16.5822 161.756 16.1977 161.612 15.8383C161.467 15.479 161.253 15.1518 160.981 14.8759C160.709 14.6001 160.384 14.381 160.027 14.2315C159.669 14.0819 159.285 14.005 158.897 14.005Z" fill="#ffffff"/>
</svg>
