<svg width="184" height="49" viewBox="0 0 184 49" fill="none" xmlns="http://www.w3.org/2000/svg">
<path d="M58.0847 12.4848C57.9678 11.5554 57.7325 10.6447 57.3847 9.77484C56.9016 8.59311 56.1071 7.56449 55.0858 6.79848C54.0644 6.03248 52.8545 5.55775 51.5847 5.42484C49.8847 5.19484 48.1647 5.02484 46.4447 4.90484C44.1347 4.75484 41.8247 4.66484 39.5047 4.60484C36.5047 4.52484 33.5047 4.46484 30.4447 4.46484C24.8147 4.46484 19.1847 4.56484 13.5647 4.93484C11.8074 5.00943 10.057 5.19984 8.32474 5.50484C7.11999 5.70217 5.9878 6.21114 5.04053 6.98123C4.09327 7.75132 3.36387 8.75576 2.92474 9.89484C2.49324 11.0413 2.22724 12.2434 2.13474 13.4648C1.95474 15.0948 1.77474 16.7248 1.68474 18.3648C1.57474 20.6748 1.48474 22.9848 1.48474 25.3048C1.48813 28.1975 1.64167 31.0881 1.94474 33.9648C2.0558 35.3745 2.28324 36.7726 2.62474 38.1448C2.92559 39.4345 3.58608 40.6123 4.52954 41.5416C5.47299 42.4709 6.66069 43.1135 7.95474 43.3948C9.3352 43.7066 10.7408 43.894 12.1547 43.9548C14.2447 44.0948 16.3347 44.2248 18.4347 44.3048C21.2047 44.3948 23.9747 44.4348 26.7447 44.4948H27.9947H32.3947H32.9147C35.1547 44.4948 37.3947 44.4948 39.6247 44.3648C42.2447 44.2748 44.8647 44.1348 47.4847 43.9948C49.0317 43.9237 50.572 43.7466 52.0947 43.4648C53.1419 43.2847 54.135 42.8711 55.0006 42.2548C55.8661 41.6386 56.5819 40.8354 57.0947 39.9048C57.6539 38.8398 57.994 37.6735 58.0947 36.4748C58.3147 34.8548 58.5147 33.2248 58.6347 31.5948C58.7647 29.7148 58.8347 27.8348 58.8847 25.9548C58.9547 23.5348 58.8847 21.1148 58.7247 18.7048C58.6216 16.6216 58.408 14.5454 58.0847 12.4848ZM24.4147 33.1548V15.8848L39.4147 24.5448L24.4147 33.1548Z" fill="white"/>
<path d="M172.495 30.925H181.685V25.105C181.68 25.0351 181.68 24.9649 181.685 24.895C181.685 24.175 181.595 23.465 181.525 22.745C181.447 21.7898 181.259 20.8468 180.965 19.935C180.696 18.9921 180.167 18.1439 179.438 17.4878C178.709 16.8317 177.811 16.394 176.845 16.225C175.396 15.9219 173.903 15.8981 172.445 16.155C171.412 16.2934 170.435 16.7072 169.617 17.3529C168.799 17.9985 168.169 18.8524 167.795 19.825C167.151 21.5255 166.812 23.3266 166.795 25.145C166.735 26.925 166.735 28.715 166.795 30.505C166.795 31.835 166.865 33.175 166.975 34.505C167.072 35.7929 167.38 37.0562 167.885 38.245C168.16 38.9809 168.588 39.6506 169.139 40.2105C169.69 40.7705 170.353 41.2081 171.085 41.495C171.894 41.8065 172.749 41.9822 173.615 42.015C175.014 42.1301 176.423 41.96 177.755 41.515C178.536 41.2613 179.248 40.8332 179.839 40.2632C180.43 39.6932 180.883 38.9962 181.165 38.225C181.519 37.1758 181.681 36.0716 181.645 34.965C181.645 34.725 181.645 34.485 181.645 34.245L176.775 33.955C176.775 34.045 176.775 34.125 176.775 34.195C176.758 35.029 176.661 35.8595 176.485 36.675C176.426 37.0909 176.226 37.4739 175.918 37.7598C175.611 38.0457 175.214 38.217 174.795 38.245C174.566 38.2978 174.329 38.3044 174.098 38.2643C173.867 38.2242 173.646 38.1383 173.448 38.0115C173.251 37.8848 173.081 37.7199 172.948 37.5264C172.815 37.3329 172.722 37.1149 172.675 36.885C172.54 36.4226 172.459 35.946 172.435 35.465C172.435 34.005 172.365 32.555 172.335 31.095C172.33 31.0417 172.33 30.9882 172.335 30.935L172.495 30.925ZM172.175 27.435C172.175 25.865 172.225 24.295 172.275 22.715C172.283 22.0998 172.398 21.4908 172.615 20.915C172.712 20.6272 172.896 20.3765 173.141 20.1975C173.386 20.0184 173.681 19.9197 173.985 19.915C174.204 19.89 174.425 19.89 174.645 19.915C174.924 19.9506 175.187 20.063 175.406 20.2395C175.625 20.4161 175.791 20.6499 175.885 20.915C176.096 21.4088 176.211 21.9382 176.225 22.475C176.225 24.155 176.295 25.825 176.335 27.475C176.335 27.475 176.335 27.555 176.335 27.605H172.195C172.185 27.575 172.175 27.505 172.175 27.435Z" fill="white"/>
<path d="M163.245 19.2248C162.975 18.3439 162.462 17.557 161.765 16.9548C161.201 16.53 160.549 16.236 159.857 16.0942C159.165 15.9523 158.451 15.9662 157.765 16.1348C156.945 16.301 156.172 16.6474 155.503 17.149C154.834 17.6506 154.284 18.2947 153.895 19.0348L153.775 19.2448H153.715V5.96484H148.255V41.7348H148.335H152.775C152.905 41.7348 152.935 41.6748 152.955 41.5648L153.435 39.5648C153.461 39.4963 153.499 39.4322 153.545 39.3748C153.595 39.3748 153.675 39.4648 153.705 39.5248C153.984 40.0252 154.357 40.4667 154.805 40.8248C155.396 41.3145 156.079 41.6817 156.814 41.9048C157.549 42.128 158.321 42.2028 159.085 42.1248C159.724 42.0851 160.345 41.8983 160.9 41.5792C161.455 41.2601 161.929 40.8171 162.285 40.2848C162.784 39.5609 163.153 38.7555 163.375 37.9048C163.866 36.1608 164.112 34.3568 164.105 32.5448C164.241 29.0597 164.158 25.5694 163.855 22.0948C163.76 21.1183 163.555 20.1555 163.245 19.2248ZM158.445 30.6748C158.445 32.1048 158.305 33.5348 158.175 34.9548C158.113 35.5532 157.975 36.1413 157.765 36.7048C157.666 37.0022 157.499 37.2723 157.278 37.4934C157.056 37.7144 156.785 37.8803 156.487 37.9776C156.19 38.0749 155.873 38.1009 155.564 38.0535C155.254 38.0061 154.96 37.8867 154.705 37.7048C154.551 37.6052 154.407 37.4914 154.275 37.3648C154.106 37.2262 153.972 37.05 153.883 36.8504C153.795 36.6507 153.754 36.433 153.765 36.2148C153.765 33.9948 153.765 31.7748 153.765 29.5648C153.765 27.3548 153.765 25.0148 153.765 22.7448C153.767 22.4983 153.814 22.2542 153.905 22.0248C154.151 21.3302 154.632 20.7432 155.265 20.3648C155.636 20.1376 156.073 20.0425 156.505 20.0948C156.804 20.1335 157.086 20.2565 157.318 20.4495C157.55 20.6425 157.722 20.8976 157.815 21.1848C158.056 21.827 158.205 22.5006 158.255 23.1848C158.457 25.6761 158.52 28.1766 158.445 30.6748Z" fill="white"/>
<path d="M110.015 16.8549C110.015 23.3483 110.015 29.8316 110.015 36.3049C110.016 36.4801 109.971 36.6525 109.885 36.8049C109.7 37.1127 109.455 37.3802 109.165 37.5915C108.874 37.8028 108.544 37.9536 108.195 38.0349C107.866 38.1096 107.524 38.1096 107.195 38.0349C106.585 37.9249 106.345 37.4449 106.195 36.8949C106.041 36.1958 105.978 35.4801 106.005 34.7649V16.5649H100.315V35.2349C100.286 36.4232 100.414 37.61 100.695 38.7649C100.919 39.792 101.5 40.7062 102.335 41.3449C103.141 41.9055 104.103 42.1961 105.085 42.1749C106.475 42.2337 107.839 41.778 108.915 40.8949C109.582 40.3393 110.135 39.6602 110.545 38.8949C110.607 38.8175 110.677 38.7471 110.755 38.6849C110.755 38.8049 110.755 38.8549 110.755 38.9049C110.895 39.7949 111.035 40.6849 111.165 41.5749C111.165 41.7549 111.245 41.8149 111.435 41.8049H115.625V16.5549H110.015V16.8549Z" fill="white"/>
<path d="M139.145 16.8649V36.2749C139.157 36.5037 139.09 36.7296 138.955 36.9149C138.562 37.4794 137.974 37.8785 137.305 38.0349C137.096 38.1315 136.867 38.1756 136.637 38.1633C136.407 38.151 136.184 38.0827 135.987 37.9644C135.79 37.846 135.625 37.6813 135.506 37.4844C135.387 37.2875 135.318 37.0645 135.305 36.8349C135.176 36.1963 135.113 35.5463 135.115 34.8949C135.115 28.8949 135.115 22.8649 135.115 16.8049V16.5249H129.445V21.2649C129.445 26.1716 129.445 31.0816 129.445 35.9949C129.434 37.0117 129.582 38.024 129.885 38.9949C130.021 39.548 130.268 40.0675 130.612 40.5214C130.956 40.9754 131.389 41.3543 131.885 41.6349C132.72 42.0426 133.649 42.2187 134.575 42.1449C135.338 42.1295 136.089 41.9522 136.779 41.6247C137.468 41.2971 138.081 40.8268 138.575 40.2449C138.934 39.7765 139.268 39.2891 139.575 38.7849C139.617 38.7397 139.664 38.6994 139.715 38.6649C139.752 38.7102 139.782 38.7608 139.805 38.8149C139.875 39.2149 139.935 39.6049 139.995 40.0049C140.075 40.5749 140.165 41.1449 140.265 41.7249H144.685V16.5649H139.025L139.145 16.8649Z" fill="white"/>
<path d="M96.4547 20.2248C96.1362 19.2562 95.5699 18.3876 94.8121 17.7052C94.0544 17.0229 93.1314 16.5505 92.1347 16.3348C90.7542 16.0368 89.331 15.9928 87.9347 16.2048C86.8926 16.3278 85.8931 16.6906 85.0147 17.2648C83.977 18.015 83.1894 19.0604 82.7547 20.2648C82.1392 21.9179 81.8013 23.6615 81.7547 25.4248C81.6947 26.6948 81.7547 27.9748 81.6747 29.2448C81.6497 31.0606 81.7198 32.8764 81.8847 34.6848C81.9918 35.8144 82.2266 36.9282 82.5847 38.0048C82.8573 38.9158 83.359 39.7416 84.0418 40.4034C84.7246 41.0652 85.5657 41.5408 86.4847 41.7848C88.3049 42.3056 90.2263 42.364 92.0747 41.9548C93.5056 41.6889 94.7739 40.8697 95.6047 39.6748C96.1507 38.8568 96.55 37.9499 96.7847 36.9948C97.1625 35.5176 97.3573 33.9996 97.3647 32.4748C97.4881 29.6379 97.4414 26.7961 97.2247 23.9648C97.1368 22.6893 96.8778 21.4314 96.4547 20.2248ZM91.7347 33.3748C91.7654 34.4233 91.6646 35.4714 91.4347 36.4948C91.3391 36.8991 91.1696 37.2822 90.9347 37.6248C90.7728 37.855 90.5536 38.0391 90.2989 38.1588C90.0441 38.2785 89.7626 38.3298 89.482 38.3076C89.2014 38.2854 88.9314 38.1905 88.6987 38.0322C88.466 37.8739 88.2785 37.6576 88.1547 37.4048C87.861 36.8191 87.6908 36.1791 87.6547 35.5248C87.5947 34.6248 87.5447 33.7148 87.5347 32.8048C87.5347 31.5848 87.5347 30.3548 87.5347 29.1348C87.5347 27.6548 87.5347 26.1348 87.5347 24.6948C87.5126 23.6544 87.6269 22.6155 87.8747 21.6048C87.9728 21.1056 88.2372 20.6544 88.6247 20.3248C88.8055 20.19 89.0117 20.0931 89.2309 20.0401C89.4501 19.9871 89.6778 19.979 89.9002 20.0164C90.1226 20.0538 90.3351 20.1358 90.525 20.2576C90.7148 20.3793 90.878 20.5383 91.0047 20.7248C91.338 21.2617 91.5306 21.8739 91.5647 22.5048C91.6547 23.5048 91.7247 24.5048 91.7347 25.5048C91.7547 28.1148 91.7447 30.7448 91.7347 33.3748Z" fill="white"/>
<path d="M83.2248 7.23486H77.8348C77.6448 7.23486 77.5748 7.23486 77.5348 7.47486C76.9148 10.2649 76.2648 13.0549 75.6748 15.8449C75.0848 18.6349 74.5448 21.4749 73.9748 24.2949C73.9748 24.3549 73.9048 24.4049 73.8648 24.4549C73.8248 24.5049 73.7948 24.3549 73.7848 24.2949C73.5048 22.7649 73.2448 21.2149 72.9248 19.6849C72.0648 15.6149 71.1848 11.5549 70.3148 7.48486C70.3148 7.30486 70.2148 7.23486 70.0148 7.23486H64.6348C64.6348 7.34486 64.6348 7.43486 64.7048 7.52486L67.0748 16.0849L71.0148 30.3349C71.0715 30.5268 71.1051 30.7249 71.1148 30.9249C71.1148 34.4382 71.1148 37.9482 71.1148 41.4549V41.7449H76.6948V30.7449C76.695 30.5995 76.7152 30.4548 76.7548 30.3149L82.7548 8.90486C82.9048 8.37486 83.0148 7.81486 83.2248 7.23486Z" fill="white"/>
<path d="M125.525 12.145V11.825H131.145C131.149 11.745 131.149 11.6649 131.145 11.585C131.145 10.245 131.145 8.91495 131.145 7.58495C131.145 7.38495 131.085 7.32495 130.885 7.32495H114.585H114.355V11.855H120.015V41.755H125.385C125.505 41.755 125.555 41.755 125.545 41.595V12.145H125.525Z" fill="white"/>
</svg>
